<mxfile host="app.diagrams.net" modified="2024-07-18T16:16:46.441Z" agent="Mozilla/5.0 (Windows NT 10.0; Win64; x64) AppleWebKit/537.36 (KHTML, like Gecko) Chrome/126.0.0.0 Safari/537.36" etag="bAvsVGNHA6VZ2XEhhiCp" version="24.7.1" type="github">
  <diagram name="Page-1" id="sKBdIotDwgmdHiMC_9qg">
    <mxGraphModel dx="880" dy="460" grid="1" gridSize="10" guides="1" tooltips="1" connect="1" arrows="1" fold="1" page="1" pageScale="1" pageWidth="827" pageHeight="1169" math="0" shadow="0">
      <root>
        <mxCell id="0" />
        <mxCell id="1" parent="0" />
        <mxCell id="yQGOshNr1xkUxwhYlLN--1" value="" style="outlineConnect=0;dashed=0;verticalLabelPosition=bottom;verticalAlign=top;align=center;html=1;shape=mxgraph.aws3.oracle_db_instance;fillColor=#2E73B8;gradientColor=none;" parent="1" vertex="1">
          <mxGeometry x="160" y="149.5" width="60" height="64.5" as="geometry" />
        </mxCell>
        <mxCell id="yQGOshNr1xkUxwhYlLN--2" value="" style="shape=image;verticalLabelPosition=bottom;labelBackgroundColor=default;verticalAlign=top;aspect=fixed;imageAspect=0;image=data:image/png,iVBORw0KGgoAAAANSUhEUgAAAOUAAAB4CAMAAAA678W5AAAAqFBMVEX///8AAAB/f3/29vbp6elKSkpWVlY6OjpycnLz8/Onp6cRERHh4eFSUlKdnZ35+fnw9/8AdP/r9P+Ghob2+//R0dG+vr64uLiOjo5paWnE3P+wsLAkJCRfX1/Y2Ng0NDTi7/+ky/8AeP8Afv8AcP87kP+u0P9Xn/+Tv//W5/9DQ0MtLS3IyMhoov+Huv+YxP93sP8AZ/8uhP9Wlv9mqf85lv8siv+81f9YLs01AAAGy0lEQVR4nO2ai3aqOhCGg/UuKiBaRbQBBKQqchD0/d/sBBCClUSpUru78q1VL5Dg/MxkMiQFgMFgMBgMBoPBYDAYDAaDwWAwGAwGg5HRGW/HMTzfebUt1dGZjHocoqe2FqP5HxZanzS5M61a/dXWPI23qyP17kw9Cx38EZ3bScHBt/H8M5HZ2P64RRUw5wjeGvJTNRqjvfnPGlQFXa5NOTsZRR7t/pg1FTHpce/UBvykzXFFMR0zqCUMqL/RThq1h/HXaS3jDgOHuPk0TvmdUe02o8E4d42lyn3yt36oM18sCaf65xzVoPUfpCk7SXMTLmN6W+UAt07cUf/g7qI1GeasvOeGAtLEmc45/RIqc4b36HGE2Pa+3pJ66z6VSNk54bxzlGi8h2+pHGbzMde6NU+pWdPGW1mV5y4dlFo2Q9qPVKISdDbYEPr1Z/h+pAOrhEquGYmLXDl6ROQ3VUY5L4Wat7rY4Cy2y6iMZ4caeh9TfqQylWCa2aFSDODxzcDZo5TKfgfUUeA0r8u7n1AJFpkhG+LQHOYGJT5aSiVy4pK7ETAVquTxfDAj9cMO3+RmskzlpkGmn0bBANV23OaxgP2+yvysSSitci3yNWamcvrWIZJN5IvoXs0eyrCPqMzNmmrh8wCP4/UiQ2YqqWGIy5Xa4xVqqrJJa5RlyguVw0amolF0r/Gk2r+oScqqRAXqo4sBqSlqm8Jnocq8swrqL+zqj8vysqzKGYraJ6m8jy/5PDdrXlV6E5V0rrzKEtXdcFzk94dU5pJo68sjQwdPF1/9fJ9KnDBm5KnqmvqoaGZ9TGWue/NyaOLKrvn15mYqR3WeSD0d9DWwKFPdjdv0FPEtlblZ88IzuLLbXD3z4aqgRyFtMwGzm889OdpVqIwr6bPJuelkSRyUoGTto/JgVCLDDrlaFSpzqRQPzQ72cEHyLaUSlRNlnizfK1KZJcNcpVfLDl0NypIqB8jmMnVPuyqVS+y4c4mCo/h6UJZUWXKRFdlCVfmN2icFl6vJ0BzjQVkYbGVU9srJnBMetx+oYzPwrNmIAhSHcPGKVKlxWRTyRIYzwnrbM1QOsa52XnOzeDYv+3x5PzxHKDWeoTI/a85x1acSVkczlYsumXl6yTvWQvN29goHyVNU5vKNmlX2HGnfolyFR00YX2iR1hSfoxKMrkONuExctlq/my1HWrd4ksrc0Ex9QEwblamMMkJxCfEklWC84S4hZ42qVNZRl03xqWepzC/yRFAq7KpUTsg/+zSV+V0femb8hsq7ijyUG2YEA7+z50Ugt45OtT/b87pL5Wf0Zdnv8rfWnTs97oO0+1frJ9B2esG8kTT6pN9TfhHXdipxGzGhPkuu1qCuzLXPhiVJc8Kp7Tl9B/Odsi+GF0ApDO9pFLUbd6fTwfhWfKVXo7ZL12rPLkQVKvfR3lK6LP79HXfkqiRORmPCItDy46Edzt/COKmqes1p4YCY/In/hEGBPj0/0qn97vXYeXCP4RfBT7Mquf1+878p/l347ShdwtzM3h/b1PzdDDv1hJtTKIPBYPzDOArCkS3r1YZUynHl+74tHMLLw4LmvMaeaghtKEkSgNLlYWjsX2PPE5H3oRkkusydHB1w19BWALA8AQZmAIXQMD3Jdd0DVGwzdIBkazvzLBwd2TnAsU3bATDY70xLOaCPzk4LTS0+jS4FA9TBBacAoou/5o5JnnY6BvHH0LdDcy8fbHAwAfBdcNw5wUFyjcCSbd3eC+5asY+CtDI17784ip3VzvJOAnrdGRI8HrVgZVu+LStiaHmiAtauEhwl6Psa+ibpe9RBeYlKICjWeSQiifu1Its20HSoGI4jutZ6BaGPvGIfIn87J8+H0soCjhhb6/oQvWoG8p5uwaMLFF0BgYlUotO6G3VwDQiNNQp7DQQH2T0ILxHpHO19mKhMIlZAKmXfDWxw0t39XpOhj6IsROcEFKiB70irExIVq/TMyOg10uoYGvTXsUovUolc7XvANtdepFKLVTr6Cb2+BGvlwMNXlWAvIjsl3ZUgGlbHQAA2OufomuxFKjNfWuIeKtBZ7aU9ukxepQcVUZPFNXD1TKW8M44SzZbqgKER+mb88RiHUzyTSKKJFFuGb9gCWIsHGNoykD3RDHVH+g+5BfkzIhB9w0JKfD0KSpRh0LgLfEExbH+Fenj6MUQqRaRSRAFxEt3XiEQ51RHkZLAIuTdBTs7B6E2CcnIOQhk5Q5KTv/iUI8ev5z6yFP0BFLESTDqAXAdNf5Erq0FZFRUSwjmX/xWkU1EqlRX404YwGAwGg8FgMBgMBoPBYDAYDAaDwWD8Iv4HpiCRMFGQBG0AAAAASUVORK5CYII=;" parent="1" vertex="1">
          <mxGeometry x="630" y="154" width="114.5" height="60" as="geometry" />
        </mxCell>
        <mxCell id="yQGOshNr1xkUxwhYlLN--3" value="" style="endArrow=classic;startArrow=classic;html=1;rounded=0;" parent="1" edge="1">
          <mxGeometry width="50" height="50" relative="1" as="geometry">
            <mxPoint x="529" y="184" as="sourcePoint" />
            <mxPoint x="630" y="184" as="targetPoint" />
          </mxGeometry>
        </mxCell>
        <mxCell id="yQGOshNr1xkUxwhYlLN--4" value="&lt;font style=&quot;font-size: 8px;&quot;&gt;ASM NODE 1&lt;/font&gt;" style="rounded=1;whiteSpace=wrap;html=1;" parent="1" vertex="1">
          <mxGeometry x="259" y="100" width="70" height="20" as="geometry" />
        </mxCell>
        <mxCell id="yQGOshNr1xkUxwhYlLN--7" value="&lt;font style=&quot;font-size: 8px;&quot;&gt;ASM NODE 2&lt;/font&gt;" style="rounded=1;whiteSpace=wrap;html=1;" parent="1" vertex="1">
          <mxGeometry x="260" y="174" width="70" height="20" as="geometry" />
        </mxCell>
        <mxCell id="yQGOshNr1xkUxwhYlLN--8" value="&lt;font style=&quot;font-size: 8px;&quot;&gt;ASM NODE 3&lt;/font&gt;" style="rounded=1;whiteSpace=wrap;html=1;" parent="1" vertex="1">
          <mxGeometry x="260" y="260" width="70" height="20" as="geometry" />
        </mxCell>
        <mxCell id="yQGOshNr1xkUxwhYlLN--9" value="Load Balancer" style="rounded=1;whiteSpace=wrap;html=1;" parent="1" vertex="1">
          <mxGeometry x="440" y="170" width="90" height="28" as="geometry" />
        </mxCell>
        <mxCell id="yQGOshNr1xkUxwhYlLN--10" value="" style="endArrow=classic;startArrow=classic;html=1;rounded=0;exitX=1;exitY=0.5;exitDx=0;exitDy=0;entryX=0;entryY=0.5;entryDx=0;entryDy=0;" parent="1" source="yQGOshNr1xkUxwhYlLN--8" target="yQGOshNr1xkUxwhYlLN--9" edge="1">
          <mxGeometry width="50" height="50" relative="1" as="geometry">
            <mxPoint x="330" y="240" as="sourcePoint" />
            <mxPoint x="380" y="190" as="targetPoint" />
          </mxGeometry>
        </mxCell>
        <mxCell id="yQGOshNr1xkUxwhYlLN--11" value="" style="endArrow=classic;startArrow=classic;html=1;rounded=0;entryX=0;entryY=0.5;entryDx=0;entryDy=0;" parent="1" target="yQGOshNr1xkUxwhYlLN--9" edge="1">
          <mxGeometry width="50" height="50" relative="1" as="geometry">
            <mxPoint x="330" y="110" as="sourcePoint" />
            <mxPoint x="380" y="100" as="targetPoint" />
          </mxGeometry>
        </mxCell>
        <mxCell id="yQGOshNr1xkUxwhYlLN--12" value="" style="endArrow=classic;startArrow=classic;html=1;rounded=0;entryX=0;entryY=0.5;entryDx=0;entryDy=0;exitX=1;exitY=0.5;exitDx=0;exitDy=0;" parent="1" source="yQGOshNr1xkUxwhYlLN--7" target="yQGOshNr1xkUxwhYlLN--9" edge="1">
          <mxGeometry width="50" height="50" relative="1" as="geometry">
            <mxPoint x="330" y="190" as="sourcePoint" />
            <mxPoint x="380" y="230" as="targetPoint" />
          </mxGeometry>
        </mxCell>
        <mxCell id="yQGOshNr1xkUxwhYlLN--13" value="redo 3&lt;div&gt;1 thread coordinator&lt;/div&gt;" style="text;html=1;align=center;verticalAlign=middle;resizable=0;points=[];autosize=1;strokeColor=none;fillColor=none;fontSize=8;rotation=35;" parent="1" vertex="1">
          <mxGeometry x="340" y="120" width="100" height="30" as="geometry" />
        </mxCell>
        <mxCell id="yQGOshNr1xkUxwhYlLN--17" value="channel 1&lt;div&gt;12 sub processes&lt;/div&gt;" style="text;html=1;align=center;verticalAlign=middle;resizable=0;points=[];autosize=1;strokeColor=none;fillColor=none;fontSize=8;rotation=0;" parent="1" vertex="1">
          <mxGeometry x="540" y="154" width="90" height="30" as="geometry" />
        </mxCell>
        <mxCell id="yQGOshNr1xkUxwhYlLN--19" value="redo 3&lt;div&gt;1 thread coordinator&lt;/div&gt;" style="text;html=1;align=center;verticalAlign=middle;resizable=0;points=[];autosize=1;strokeColor=none;fillColor=none;fontSize=8;rotation=0;" parent="1" vertex="1">
          <mxGeometry x="326" y="160" width="100" height="30" as="geometry" />
        </mxCell>
        <mxCell id="yQGOshNr1xkUxwhYlLN--22" value="redo 3&lt;div&gt;1 thread coordinator&lt;/div&gt;" style="text;html=1;align=center;verticalAlign=middle;resizable=0;points=[];autosize=1;strokeColor=none;fillColor=none;fontSize=8;rotation=-30;" parent="1" vertex="1">
          <mxGeometry x="320" y="200" width="100" height="30" as="geometry" />
        </mxCell>
      </root>
    </mxGraphModel>
  </diagram>
</mxfile>
